# xmcd
#
# Track frame offsets:
#	150
#	15958
#	33239
#	50236
#	64726
#	81749
#	97383
#	113467
#	127036
#	144658
#	161065
#	174122
#	190905
#	206998
#	223336
#	237407
#	254017
#	268339
#	282177
#	298449
#	316035
#
# Disc length: 4400 seconds
#
# Revision: 0
# Processed by: cddbd v1.5.2PL0 Copyright (c) Steve Scherf et al.
# Submitted via: EZCDAudioConverter 7.1.0.1
#
DISCID=56112e15
DTITLE=Nu Country Traxx Volume 232 US
DYEAR=2018
DGENRE=country
TTITLE0=Eric Church - Desperate Man
TTITLE1=Blake Shelton - Turnin' Me On
TTITLE2=Kenny Chesney ft. Mindy Smith - Better Boat
TTITLE3=David Lee Murphy - I Won't Be Sorry
TTITLE4=Randy Houser - What Whiskey Does
TTITLE5=Abby Stevens - Front Porch Swing
TTITLE6=Dan and Shay - Speechless
TTITLE7=Uncle Kracker - Floatin'
TTITLE8=Morgan Wallen - Whiskey Glasses
TTITLE9=Alexandra Demetree - Coastin'
TTITLE10=Jon Pardi - Night Shift
TTITLE11=The Band Steele - Sit Awhile
TTITLE12=Kacey Musgraves - High Horse
TTITLE13=Mark Wayne Glasmire - I've Got A Feeling
TTITLE14=Ashley McBryde - Radioland
TTITLE15=FLO - Sincerely, Not Really
TTITLE16=Tenille Arts - I Hate This
TTITLE17=Chase Rice - Eyes On You
TTITLE18=Casey Donahew - That Got The Girl
TTITLE19=Wild Blue Country - Here We Are
TTITLE20=Tebey - Who's Gonna Love You
EXTD=
EXTT0=
EXTT1=
EXTT2=
EXTT3=
EXTT4=
EXTT5=
EXTT6=
EXTT7=
EXTT8=
EXTT9=
EXTT10=
EXTT11=
EXTT12=
EXTT13=
EXTT14=
EXTT15=
EXTT16=
EXTT17=
EXTT18=
EXTT19=
EXTT20=
PLAYORDER=
